<?xml version="1.0" encoding="UTF-8"?>
<svg width="24px" height="24px" viewBox="0 0 24 24" version="1.1" xmlns="http://www.w3.org/2000/svg">
    <g stroke="none" stroke-width="1" fill="none" fill-rule="evenodd">
        <path d="M20.64,12.2045455 C20.64,11.5681818 20.5827273,10.9318182 20.4763636,10.3181818 L12,10.3181818 L12,13.8504545 L16.8436364,13.8504545 C16.635,14.9695455 15.9572727,15.9231818 14.9563636,16.5613636 L14.9563636,18.8195455 L17.8431818,18.8195455 C19.5054545,17.2886364 20.64,14.9695455 20.64,12.2045455 L20.64,12.2045455 Z" fill="#4285F4"></path>
        <path d="M12,21 C14.43,21 16.4672727,20.1940909 17.8436364,18.8195455 L14.9563636,16.5613636 C14.1545455,17.1013636 13.1727273,17.4204545 12,17.4204545 C9.65590909,17.4204545 7.67590909,15.8372727 6.96409091,13.71 L3.95727273,13.71 L3.95727273,16.0418182 C5.34409091,18.9831818 8.36590909,21 12,21 L12,21 Z" fill="#34A853"></path>
        <path d="M6.96409091,13.71 C6.78409091,13.17 6.68181818,12.5931818 6.68181818,12 C6.68181818,11.4068182 6.78409091,10.83 6.96409091,10.29 L6.96409091,7.95818182 L3.95727273,7.95818182 C3.34772727,9.17318182 3,10.5477273 3,12 C3,13.4522727 3.34772727,14.8268182 3.95727273,16.0418182 L6.96409091,13.71 L6.96409091,13.71 Z" fill="#FBBC05"></path>
        <path d="M12,6.57954545 C13.3213636,6.57954545 14.5077273,7.03363636 15.4404545,7.92545455 L18,5.36590909 C16.4631818,3.89181818 14.4259091,3 12,3 C8.36590909,3 5.34409091,5.01681818 3.95727273,7.95818182 L6.96409091,10.29 C7.67590909,8.16272727 9.65590909,6.57954545 12,6.57954545 L12,6.57954545 Z" fill="#EA4335"></path>
    </g>
</svg> 