<?xml version="1.0" encoding="UTF-8"?>
<svg width="24px" height="24px" viewBox="0 0 24 24" version="1.1" xmlns="http://www.w3.org/2000/svg">
    <g stroke="none" stroke-width="1" fill="none" fill-rule="evenodd">
        <path d="M19,3 C20.1045695,3 21,3.8954305 21,5 L21,19 C21,20.1045695 20.1045695,21 19,21 L5,21 C3.8954305,21 3,20.1045695 3,19 L3,5 C3,3.8954305 3.8954305,3 5,3 L19,3 Z M18.5,18.5 L18.5,13.2 C18.5,11.3 17.7,10.5 16.3,10.5 C15.1,10.5 14.5,11.1 14.2,11.5 L14.2,10.7 L11.7,10.7 L11.7,18.5 L14.2,18.5 L14.2,13.7 C14.2,13.1 14.5,12.5 15.3,12.5 C16.1,12.5 16.1,13.2 16.1,13.7 L16.1,18.5 L18.5,18.5 Z M6.9,8.4 C7.8,8.4 8.4,7.8 8.4,7 C8.4,6.2 7.8,5.6 6.9,5.6 C6,5.6 5.4,6.2 5.4,7 C5.4,7.8 6,8.4 6.9,8.4 Z M8.2,18.5 L8.2,10.7 L5.7,10.7 L5.7,18.5 L8.2,18.5 Z" fill="#0077B5"></path>
    </g>
</svg> 